<svg preserveAspectRatio="none" width="100%" height="100%" overflow="visible" style="display: block;" viewBox="0 0 16.3 14.8866" fill="none" xmlns="http://www.w3.org/2000/svg">
<path id="Icon" d="M15.65 4.48662V7.48662M6.8375 2.61162H4.25C2.98988 2.61162 2.35982 2.61162 1.87852 2.85685C1.45516 3.07257 1.11095 3.41677 0.895234 3.84014C0.649999 4.32144 0.65 4.9515 0.65 6.21162L0.650001 7.11162C0.650001 7.81053 0.650002 8.15999 0.764183 8.43564C0.916424 8.80318 1.20843 9.09519 1.57598 9.24743C1.85163 9.36162 2.20109 9.36162 2.9 9.36162V12.5491C2.9 12.7232 2.9 12.8103 2.90723 12.8836C2.97737 13.5958 3.54081 14.1593 4.25298 14.2294C4.32631 14.2366 4.41338 14.2366 4.5875 14.2366C4.76163 14.2366 4.84869 14.2366 4.92203 14.2294C5.63419 14.1593 6.19764 13.5958 6.26778 12.8836C6.275 12.8103 6.275 12.7232 6.275 12.5491V9.36162H6.8375C8.16232 9.36162 9.78294 10.0718 11.0332 10.7533C11.7626 11.151 12.1273 11.3498 12.3662 11.3205C12.5877 11.2934 12.7552 11.1939 12.885 11.0124C13.025 10.8167 13.025 10.4251 13.025 9.6419V2.33133C13.025 1.54811 13.025 1.1565 12.885 0.960783C12.7552 0.779292 12.5877 0.679841 12.3662 0.652713C12.1273 0.623458 11.7626 0.822266 11.0332 1.21988C9.78293 1.90145 8.16232 2.61162 6.8375 2.61162Z" stroke="var(--stroke-0, #64748B)" stroke-width="1.3" stroke-linecap="round" stroke-linejoin="round"/>
</svg>
