<svg preserveAspectRatio="none" width="100%" height="100%" overflow="visible" style="display: block;" viewBox="0 0 14.8 14.8" fill="none" xmlns="http://www.w3.org/2000/svg">
<path id="Icon" d="M5.15 3.65H1.85C1.42996 3.65 1.21994 3.65 1.05951 3.73175C0.918388 3.80365 0.803653 3.91839 0.731748 4.05951C0.650003 4.21994 0.650003 4.42996 0.650003 4.85V12.95C0.650003 13.37 0.650003 13.5801 0.731748 13.7405C0.803653 13.8816 0.918388 13.9964 1.05951 14.0683C1.21994 14.15 1.42996 14.15 1.85 14.15H5.15M5.15 14.15H9.65M5.15 14.15L5.15 1.85C5.15 1.42996 5.15 1.21994 5.23175 1.05951C5.30365 0.918388 5.41839 0.803653 5.55951 0.731748C5.71994 0.650003 5.92996 0.650003 6.35 0.650003L8.45 0.650003C8.87004 0.650003 9.08006 0.650003 9.2405 0.731748C9.38162 0.803653 9.49635 0.918388 9.56826 1.05951C9.65 1.21994 9.65 1.42996 9.65 1.85V14.15M9.65 6.65H12.95C13.37 6.65 13.5801 6.65 13.7405 6.73175C13.8816 6.80365 13.9964 6.91839 14.0683 7.05951C14.15 7.21994 14.15 7.42996 14.15 7.85V12.95C14.15 13.37 14.15 13.5801 14.0683 13.7405C13.9964 13.8816 13.8816 13.9964 13.7405 14.0683C13.5801 14.15 13.37 14.15 12.95 14.15H9.65" stroke="var(--stroke-0, #64748B)" stroke-width="1.3" stroke-linecap="round" stroke-linejoin="round"/>
</svg>
