<svg preserveAspectRatio="none" width="100%" height="100%" overflow="visible" style="display: block;" viewBox="0 0 14.6085 16.5" fill="none" xmlns="http://www.w3.org/2000/svg">
<path id="Icon" d="M5.31988 15C5.84873 15.4668 6.54341 15.75 7.30425 15.75C8.06508 15.75 8.75977 15.4668 9.28862 15M11.8042 5.25C11.8042 4.05653 11.3301 2.91193 10.4862 2.06802C9.64231 1.22411 8.49772 0.75 7.30425 0.75C6.11077 0.75 4.96618 1.22411 4.12227 2.06802C3.27835 2.91193 2.80425 4.05653 2.80425 5.25C2.80425 7.56764 2.2196 9.15447 1.5665 10.2041C1.01559 11.0894 0.74014 11.5321 0.75024 11.6556C0.761424 11.7923 0.790392 11.8444 0.900579 11.9262C1.00009 12 1.44869 12 2.34589 12H12.2626C13.1598 12 13.6084 12 13.7079 11.9262C13.8181 11.8444 13.8471 11.7923 13.8583 11.6556C13.8684 11.5321 13.5929 11.0894 13.042 10.2041C12.3889 9.15447 11.8042 7.56764 11.8042 5.25Z" stroke="var(--stroke-0, #64748B)" stroke-width="1.5" stroke-linecap="round" stroke-linejoin="round"/>
</svg>
