<svg preserveAspectRatio="none" width="100%" height="100%" overflow="visible" style="display: block;" viewBox="0 0 14.8 16.3" fill="none" xmlns="http://www.w3.org/2000/svg">
<path id="Icon" d="M8.9 14.15C8.9 14.9784 8.22843 15.65 7.4 15.65C6.57157 15.65 5.9 14.9784 5.9 14.15M8.9 14.15C8.9 13.3216 8.22843 12.65 7.4 12.65M8.9 14.15H14.15M5.9 14.15C5.9 13.3216 6.57157 12.65 7.4 12.65M5.9 14.15H0.65M7.4 12.65V9.65M14.15 2.9C14.15 4.14264 11.1279 5.15 7.4 5.15C3.67208 5.15 0.65 4.14264 0.65 2.9M14.15 2.9C14.15 1.65736 11.1279 0.65 7.4 0.65C3.67208 0.65 0.65 1.65736 0.65 2.9M14.15 2.9V7.4C14.15 8.645 11.15 9.65 7.4 9.65M0.65 2.9V7.4C0.65 8.645 3.65 9.65 7.4 9.65" stroke="var(--stroke-0, #64748B)" stroke-width="1.3" stroke-linecap="round" stroke-linejoin="round"/>
</svg>
