<svg preserveAspectRatio="none" width="100%" height="100%" overflow="visible" style="display: block;" viewBox="0 0 14.5 14.5" fill="none" xmlns="http://www.w3.org/2000/svg">
<path id="Icon" d="M11.375 11.375L11.375 3.125M4.1 0.5H10.4C11.6601 0.5 12.2902 0.5 12.7715 0.745236C13.1948 0.960951 13.539 1.30516 13.7548 1.72852C14 2.20982 14 2.83988 14 4.1V10.4C14 11.6601 14 12.2902 13.7548 12.7715C13.539 13.1948 13.1948 13.539 12.7715 13.7548C12.2902 14 11.6601 14 10.4 14H4.1C2.83988 14 2.20982 14 1.72852 13.7548C1.30516 13.539 0.960951 13.1948 0.745236 12.7715C0.5 12.2902 0.5 11.6601 0.5 10.4V4.1C0.5 2.83988 0.5 2.20982 0.745236 1.72852C0.960951 1.30516 1.30516 0.960951 1.72852 0.745236C2.20982 0.5 2.83988 0.5 4.1 0.5Z" stroke="var(--stroke-0, #64748B)" stroke-linecap="round" stroke-linejoin="round"/>
</svg>
