<svg preserveAspectRatio="none" width="100%" height="100%" overflow="visible" style="display: block;" viewBox="0 0 16.5 16.5" fill="none" xmlns="http://www.w3.org/2000/svg">
<path id="Icon" d="M6.0675 6C6.24383 5.49875 6.59186 5.07608 7.04997 4.80685C7.50807 4.53762 8.04667 4.4392 8.57038 4.52903C9.09409 4.61886 9.56911 4.89114 9.91131 5.29765C10.2535 5.70415 10.4408 6.21864 10.44 6.75C10.44 8.25 8.19 9 8.19 9M8.25 12H8.2575M15.75 8.25C15.75 12.3921 12.3921 15.75 8.25 15.75C4.10786 15.75 0.75 12.3921 0.75 8.25C0.75 4.10786 4.10786 0.75 8.25 0.75C12.3921 0.75 15.75 4.10786 15.75 8.25Z" stroke="var(--stroke-0, #64748B)" stroke-width="1.5" stroke-linecap="round" stroke-linejoin="round"/>
</svg>
