<svg preserveAspectRatio="none" width="100%" height="100%" overflow="visible" style="display: block;" viewBox="0 0 16.3 13.3001" fill="none" xmlns="http://www.w3.org/2000/svg">
<path id="Icon" d="M1.02501 6.65007H3.56149C4.07539 6.65007 4.54519 6.94042 4.77501 7.40007C5.00484 7.85972 5.47463 8.15007 5.98854 8.15007H10.3115C10.8254 8.15007 11.2952 7.85972 11.525 7.40007C11.7548 6.94042 12.2246 6.65007 12.7385 6.65007H15.275M5.87493 0.650072H10.4251C11.2327 0.650072 11.6366 0.650072 11.9931 0.773045C12.3084 0.881793 12.5955 1.05927 12.8338 1.29263C13.1032 1.55652 13.2838 1.91772 13.645 2.6401L15.2699 5.88995C15.4117 6.17344 15.4826 6.31518 15.5325 6.46373C15.5769 6.59566 15.609 6.73142 15.6283 6.86927C15.65 7.02449 15.65 7.18297 15.65 7.49992V9.05007C15.65 10.3102 15.65 10.9402 15.4048 11.4216C15.1891 11.8449 14.8449 12.1891 14.4215 12.4048C13.9402 12.6501 13.3101 12.6501 12.05 12.6501H4.25001C2.98989 12.6501 2.35983 12.6501 1.87853 12.4048C1.45517 12.1891 1.11096 11.8449 0.895247 11.4216C0.650011 10.9402 0.650011 10.3102 0.650011 9.05007V7.49992C0.650011 7.18297 0.650011 7.02449 0.671742 6.86927C0.691041 6.73142 0.72309 6.59566 0.767476 6.46373C0.817456 6.31518 0.88833 6.17344 1.03007 5.88995L2.655 2.6401C3.01619 1.91772 3.19679 1.55652 3.46622 1.29263C3.70448 1.05927 3.99165 0.881793 4.30693 0.773045C4.66345 0.650072 5.06728 0.650072 5.87493 0.650072Z" stroke="var(--stroke-0, #64748B)" stroke-width="1.3" stroke-linecap="round" stroke-linejoin="round"/>
</svg>
