<svg preserveAspectRatio="none" width="100%" height="100%" overflow="visible" style="display: block;" viewBox="0 0 16.3 16.2115" fill="none" xmlns="http://www.w3.org/2000/svg">
<path id="Icon" d="M4.4 6.23074L0.65 8.10574L7.88167 11.7216C7.98006 11.7708 8.02925 11.7954 8.08085 11.805C8.12655 11.8136 8.17345 11.8136 8.21915 11.805C8.27075 11.7954 8.31994 11.7708 8.41833 11.7216L15.65 8.10574L11.9 6.23074M4.4 9.98074L0.65 11.8557L7.88167 15.4716C7.98006 15.5208 8.02925 15.5454 8.08085 15.555C8.12655 15.5636 8.17345 15.5636 8.21915 15.555C8.27075 15.5454 8.31994 15.5208 8.41833 15.4716L15.65 11.8557L11.9 9.98074M0.65 4.35574L7.88167 0.739901C7.98006 0.690708 8.02925 0.666111 8.08085 0.656431C8.12655 0.647856 8.17345 0.647856 8.21915 0.656431C8.27075 0.666111 8.31994 0.690708 8.41833 0.739901L15.65 4.35574L8.41833 7.97157C8.31994 8.02077 8.27075 8.04536 8.21915 8.05504C8.17345 8.06362 8.12655 8.06362 8.08085 8.05504C8.02925 8.04536 7.98006 8.02077 7.88167 7.97157L0.65 4.35574Z" stroke="var(--stroke-0, #64748B)" stroke-width="1.3" stroke-linecap="round" stroke-linejoin="round"/>
</svg>
