<svg preserveAspectRatio="none" width="100%" height="100%" overflow="visible" style="display: block;" viewBox="0 0 16.3 16.3" fill="none" xmlns="http://www.w3.org/2000/svg">
<path id="Icon" d="M6.65002 10.4L4.34357 12.7353C4.02186 13.061 3.861 13.2239 3.72273 13.2354C3.60278 13.2453 3.48533 13.1971 3.40698 13.1057C3.31668 13.0004 3.31668 12.7715 3.31668 12.3137V11.1437C3.31668 10.733 2.98032 10.4358 2.57392 10.3762C1.59032 10.2322 0.817848 9.45969 0.673773 8.4761C0.650016 8.31391 0.650016 8.12039 0.650016 7.73333V4.25C0.650016 2.98988 0.650016 2.35982 0.895251 1.87852C1.11097 1.45516 1.45517 1.11095 1.87854 0.895236C2.35984 0.65 2.9899 0.65 4.25002 0.65H9.80002C11.0601 0.65 11.6902 0.65 12.1715 0.895236C12.5949 1.11095 12.9391 1.45516 13.1548 1.87852C13.4 2.35982 13.4 2.98988 13.4 4.25V7.4M13.4 15.65L11.7677 14.5152C11.5383 14.3556 11.4235 14.2759 11.2987 14.2193C11.1878 14.1691 11.0713 14.1326 10.9517 14.1106C10.8169 14.0857 10.6772 14.0857 10.3977 14.0857H9.05002C8.20994 14.0857 7.7899 14.0857 7.46903 13.9222C7.18679 13.7784 6.95732 13.5489 6.81351 13.2667C6.65002 12.9458 6.65002 12.5258 6.65002 11.6857V9.8C6.65002 8.95992 6.65002 8.53988 6.81351 8.21901C6.95732 7.93677 7.18679 7.7073 7.46903 7.56349C7.7899 7.4 8.20994 7.4 9.05002 7.4H13.25C14.0901 7.4 14.5101 7.4 14.831 7.56349C15.1132 7.7073 15.3427 7.93677 15.4865 8.21901C15.65 8.53988 15.65 8.95992 15.65 9.8V11.8357C15.65 12.5346 15.65 12.8841 15.5358 13.1597C15.3836 13.5273 15.0916 13.8193 14.724 13.9715C14.4484 14.0857 14.0989 14.0857 13.4 14.0857V15.65Z" stroke="var(--stroke-0, #64748B)" stroke-width="1.3" stroke-linecap="round" stroke-linejoin="round"/>
</svg>
