<svg preserveAspectRatio="none" width="100%" height="100%" overflow="visible" style="display: block;" viewBox="0 0 14.7352 16.3" fill="none" xmlns="http://www.w3.org/2000/svg">
<g id="Icon">
<path d="M5.41259 13.6783L5.85092 14.6642C5.98123 14.9576 6.19388 15.207 6.46309 15.382C6.7323 15.5569 7.04651 15.6501 7.36759 15.65C7.68867 15.6501 8.00288 15.5569 8.27209 15.382C8.5413 15.207 8.75395 14.9576 8.88426 14.6642L9.32259 13.6783C9.47863 13.3285 9.74109 13.0369 10.0726 12.845C10.4062 12.6526 10.7921 12.5706 11.1751 12.6108L12.2476 12.725C12.5668 12.7588 12.889 12.6992 13.1751 12.5535C13.4612 12.4078 13.6988 12.1822 13.8593 11.9042C14.0199 11.6263 14.0964 11.3077 14.0796 10.9872C14.0627 10.6666 13.9532 10.3579 13.7643 10.0983L13.1293 9.22583C12.9031 8.91285 12.7823 8.53611 12.7843 8.15C12.7842 7.76494 12.9061 7.38976 13.1326 7.07833L13.7676 6.20583C13.9565 5.94632 14.066 5.63755 14.0829 5.31701C14.0998 4.99646 14.0232 4.67791 13.8626 4.4C13.7022 4.12193 13.4645 3.89637 13.1784 3.75067C12.8924 3.60497 12.5702 3.5454 12.2509 3.57917L11.1784 3.69333C10.7954 3.73356 10.4095 3.65159 10.0759 3.45917C9.74377 3.26619 9.48123 2.97302 9.32592 2.62167L8.88426 1.63583C8.75395 1.34238 8.5413 1.09304 8.27209 0.918049C8.00288 0.743062 7.68867 0.649948 7.36759 0.65C7.04651 0.649948 6.7323 0.743062 6.46309 0.918049C6.19388 1.09304 5.98123 1.34238 5.85092 1.63583L5.41259 2.62167C5.25729 2.97302 4.99475 3.26619 4.66259 3.45917C4.329 3.65159 3.94309 3.73356 3.56009 3.69333L2.48426 3.57917C2.165 3.5454 1.84281 3.60497 1.55674 3.75067C1.27068 3.89637 1.03302 4.12193 0.87259 4.4C0.711956 4.67791 0.635428 4.99646 0.652291 5.31701C0.669154 5.63755 0.778684 5.94632 0.96759 6.20583L1.60259 7.07833C1.82905 7.38976 1.95099 7.76494 1.95092 8.15C1.95099 8.53506 1.82905 8.91024 1.60259 9.22167L0.96759 10.0942C0.778684 10.3537 0.669154 10.6624 0.652291 10.983C0.635428 11.3035 0.711956 11.6221 0.87259 11.9C1.03318 12.1779 1.27086 12.4034 1.55689 12.549C1.84292 12.6947 2.16503 12.7544 2.48426 12.7208L3.55676 12.6067C3.93976 12.5664 4.32567 12.6484 4.65926 12.8408C4.99265 13.0333 5.25641 13.3265 5.41259 13.6783Z" stroke="var(--stroke-0, #64748B)" stroke-width="1.3" stroke-linecap="round" stroke-linejoin="round"/>
<path d="M7.36625 10.4C8.60889 10.4 9.61625 9.39264 9.61625 8.15C9.61625 6.90736 8.60889 5.9 7.36625 5.9C6.12361 5.9 5.11625 6.90736 5.11625 8.15C5.11625 9.39264 6.12361 10.4 7.36625 10.4Z" stroke="var(--stroke-0, #64748B)" stroke-width="1.3" stroke-linecap="round" stroke-linejoin="round"/>
</g>
</svg>
