<svg preserveAspectRatio="none" width="100%" height="100%" overflow="visible" style="display: block;" viewBox="0 0 16.3 16.3" fill="none" xmlns="http://www.w3.org/2000/svg">
<path id="Icon" d="M2.15002 15.5131C2.60195 15.65 3.21237 15.65 4.25 15.65H12.05C13.0876 15.65 13.698 15.65 14.15 15.5131M2.15002 15.5131C2.05312 15.4837 1.9635 15.4481 1.87852 15.4048C1.45516 15.189 1.11095 14.8448 0.895236 14.4215C0.65 13.9402 0.65 13.3101 0.65 12.05V4.25C0.65 2.98988 0.65 2.35982 0.895236 1.87852C1.11095 1.45516 1.45516 1.11095 1.87852 0.895236C2.35982 0.65 2.98988 0.65 4.25 0.65H12.05C13.3101 0.65 13.9402 0.65 14.4215 0.895236C14.8448 1.11095 15.189 1.45516 15.4048 1.87852C15.65 2.35982 15.65 2.98988 15.65 4.25V12.05C15.65 13.3101 15.65 13.9402 15.4048 14.4215C15.189 14.8448 14.8448 15.189 14.4215 15.4048C14.3365 15.4481 14.2469 15.4837 14.15 15.5131M2.15002 15.5131C2.15026 14.9061 2.15391 14.5849 2.20764 14.3147C2.44436 13.1247 3.37466 12.1944 4.56473 11.9576C4.85453 11.9 5.20302 11.9 5.9 11.9H10.4C11.097 11.9 11.4455 11.9 11.7353 11.9576C12.9253 12.1944 13.8556 13.1247 14.0924 14.3147C14.1461 14.5849 14.1497 14.9061 14.15 15.5131M11.15 6.275C11.15 7.93185 9.80685 9.275 8.15 9.275C6.49315 9.275 5.15 7.93185 5.15 6.275C5.15 4.61815 6.49315 3.275 8.15 3.275C9.80685 3.275 11.15 4.61815 11.15 6.275Z" stroke="var(--stroke-0, #64748B)" stroke-width="1.3" stroke-linecap="round" stroke-linejoin="round"/>
</svg>
