<svg preserveAspectRatio="none" width="100%" height="100%" overflow="visible" style="display: block;" viewBox="0 0 12.8333 12.8333" fill="none" xmlns="http://www.w3.org/2000/svg">
<path id="Solid" fill-rule="evenodd" clip-rule="evenodd" d="M0.601709 6.41667C0.601533 6.3386 0.586202 6.26062 0.555712 6.18714L0.134873 5.16819C0.0459637 4.9536 3.73165e-05 4.72324 2.26004e-08 4.49096C-3.71247e-05 4.25855 0.0457191 4.02841 0.134656 3.81369C0.223592 3.59897 0.353966 3.40388 0.518328 3.23957C0.682645 3.0753 0.877713 2.94501 1.09239 2.85613L2.10968 2.43474C2.25701 2.37382 2.37452 2.25684 2.43585 2.10968L2.85734 1.09208C3.03688 0.658613 3.38126 0.314218 3.81472 0.134665C4.24819 -0.0448883 4.73523 -0.0448884 5.16869 0.134665L6.18551 0.555861C6.33306 0.616776 6.49893 0.616698 6.64637 0.555514L6.64753 0.555035L7.66524 0.135285C8.09856 -0.0440245 8.5857 -0.0440833 9.01896 0.135387C9.45234 0.314905 9.79667 0.659201 9.97624 1.09256L10.3876 2.08572C10.3913 2.09356 10.3948 2.10151 10.3981 2.10957C10.4591 2.25706 10.5761 2.37431 10.7234 2.43559L11.7413 2.85723C12.1748 3.03678 12.5191 3.38117 12.6987 3.81464C12.8782 4.24811 12.8782 4.73515 12.6987 5.16861L12.2773 6.18594C12.2467 6.25983 12.2314 6.33855 12.2314 6.41684C12.2314 6.49514 12.2467 6.5735 12.2773 6.64739L12.6987 7.66472C12.8782 8.09819 12.8782 8.58522 12.6987 9.01869C12.5191 9.45216 12.1748 9.79655 11.7413 9.97611L10.7234 10.3977C10.5761 10.459 10.4591 10.5763 10.3981 10.7238C10.3948 10.7318 10.3913 10.7398 10.3876 10.7476L9.97624 11.7408C9.79667 12.1741 9.45234 12.5184 9.01896 12.6979C8.5857 12.8774 8.09856 12.8774 7.66524 12.698L6.64753 12.2783L6.64637 12.2778C6.49893 12.2166 6.33306 12.2166 6.18551 12.2775L5.16869 12.6987C4.73523 12.8782 4.24819 12.8782 3.81472 12.6987C3.38126 12.5191 3.03688 12.1747 2.85734 11.7413L2.43585 10.7237C2.37452 10.5765 2.25701 10.4595 2.10968 10.3986L1.09239 9.9772C0.877713 9.88833 0.682645 9.75804 0.518328 9.59377C0.353966 9.42945 0.223592 9.23436 0.134656 9.01964C0.0457191 8.80492 -3.71247e-05 8.57478 2.26004e-08 8.34237C3.73165e-05 8.11009 0.0459637 7.87974 0.134873 7.66514L0.555712 6.64619C0.586202 6.57271 0.601533 6.49473 0.601709 6.41667ZM8.87081 5.37081C9.09862 5.14301 9.09862 4.77366 8.87081 4.54585C8.64301 4.31805 8.27366 4.31805 8.04585 4.54585L5.83333 6.75838L5.07915 6.00419C4.85134 5.77638 4.48199 5.77638 4.25419 6.00419C4.02638 6.23199 4.02638 6.60134 4.25419 6.82915L5.42085 7.99581C5.64866 8.22362 6.01801 8.22362 6.24581 7.99581L8.87081 5.37081Z" fill="var(--fill-0, #47C2FF)"/>
</svg>
